<svg xmlns="http://www.w3.org/2000/svg" width="360" height="72">
	<rect width="100%" height="100%" fill="#0b0c10" />
	<g transform="translate(0,0)">
		<svg width="72" height="72" viewBox="0 0 72 72" role="img" aria-label="avatar">
			<defs>
				<linearGradient id="mp-av-p1" x1="0" x2="1"><stop offset="0%" stop-color="#2b2b2b"/><stop offset="100%" stop-color="#111"/></linearGradient>
			</defs>
			<rect width="72" height="72" rx="9" fill="url(#mp-av-p1)" />
			<g fill-opacity="0.18" fill="#000"><circle cx="18" cy="30" r="9" /><rect x="34" y="47" width="14" height="14" rx="3"/></g>
		</svg>
		<svg x="72" width="72" height="72" viewBox="0 0 72 72" role="img" aria-label="avatar"><rect width="72" height="72" rx="9" fill="#141414" /><g fill-opacity="0.18" fill="#000"><circle cx="29" cy="17" r="9" /><rect x="27" y="46" width="14" height="14" rx="3"/></g></svg>
		<svg x="144" width="72" height="72" viewBox="0 0 72 72" role="img" aria-label="avatar"><rect width="72" height="72" rx="9" fill="#1a1a1a" /><g fill-opacity="0.18" fill="#000"><circle cx="34" cy="46" r="9" /><rect x="26" y="7" width="14" height="14" rx="3"/></g></svg>
		<svg x="216" width="72" height="72" viewBox="0 0 72 72" role="img" aria-label="avatar"><rect width="72" height="72" rx="9" fill="#111" /><g fill-opacity="0.18" fill="#000"><circle cx="49" cy="49" r="9" /><rect x="27" y="46" width="14" height="14" rx="3"/></g></svg>
		<svg x="288" width="72" height="72" viewBox="0 0 72 72" role="img" aria-label="avatar"><rect width="72" height="72" rx="9" fill="#151515" /><g fill-opacity="0.18" fill="#000"><circle cx="14" cy="36" r="9" /><rect x="48" y="25" width="14" height="14" rx="3"/></g></svg>
	</g>
</svg>